<svg xmlns="http://www.w3.org/2000/svg" viewBox="0 9.789999961853027 84.5 63.5" data-asc="0.89697265625" width="84.5" height="63.5">
  <style>
    @media (prefers-color-scheme: dark) {
      .name { fill: #ffffff; stroke: #ffffff; stroke-width: 1.2; }
    }
    @media (prefers-color-scheme: light) {
      .name { fill: #000000; stroke: #000000; stroke-width: 1.2; }
    }
  </style><defs/><g class="name"><g transform="translate(0, 0)"><path d="M11.89 46.66Q11.45 46.66 11.07 46.52Q10.69 46.39 10.44 46.19Q10.18 46.00 10.03 45.76Q9.89 45.53 9.89 45.34Q9.89 45.17 10.00 44.92Q10.11 44.68 10.27 44.46Q10.42 44.24 10.58 44.09Q10.74 43.95 10.84 43.95Q10.96 43.95 10.99 44.03Q11.01 44.12 11.02 44.23Q11.04 44.34 11.06 44.46Q11.08 44.58 11.21 44.65Q11.47 44.80 11.85 44.90Q12.23 45.00 13.11 45.00Q14.23 45.00 15.22 44.64Q16.21 44.29 16.96 43.69Q17.70 43.09 18.13 42.29Q18.55 41.48 18.55 40.55Q18.55 39.28 17.76 38.53Q16.97 37.77 15.66 37.29Q14.36 36.82 12.68 36.52Q11.01 36.23 9.28 35.88Q7.54 35.52 5.87 34.97Q4.20 34.42 2.89 33.47Q1.59 32.52 0.79 31.03Q0 29.54 0 27.29Q0 24.78 1.03 22.50Q2.05 20.21 3.78 18.26Q5.52 16.31 7.76 14.75Q10.01 13.18 12.45 12.08Q14.89 10.99 17.37 10.39Q19.85 9.79 22.00 9.79Q25.46 9.79 27.28 11.02Q29.10 12.26 29.10 14.70Q29.10 15.80 28.59 16.80Q28.08 17.80 27.44 18.59Q26.81 19.38 26.23 19.91Q25.66 20.43 25.54 20.56L25.39 20.34Q25.42 20.31 25.83 19.87Q26.25 19.43 26.71 18.75Q27.17 18.07 27.56 17.24Q27.95 16.41 27.95 15.55Q27.95 13.57 26.32 12.61Q24.68 11.65 21.56 11.65Q18.33 11.65 15.55 12.40Q12.77 13.16 10.46 14.42Q8.15 15.67 6.36 17.31Q4.57 18.95 3.33 20.68Q2.10 22.41 1.45 24.12Q0.81 25.83 0.81 27.25Q0.81 29.15 1.61 30.36Q2.42 31.57 3.74 32.34Q5.05 33.11 6.73 33.52Q8.40 33.94 10.16 34.25Q11.91 34.57 13.59 34.90Q15.26 35.23 16.58 35.80Q17.90 36.38 18.70 37.32Q19.51 38.26 19.51 39.79Q19.51 41.21 19.06 42.26Q18.60 43.31 17.90 44.07Q17.19 44.82 16.32 45.32Q15.45 45.83 14.60 46.12Q13.75 46.41 13.02 46.53Q12.30 46.66 11.89 46.66ZM23.10 41.14Q23.10 40.50 23.17 39.07Q23.24 37.65 23.34 35.45Q23.44 33.25 23.51 30.32Q23.58 27.39 23.58 23.75Q23.58 21.97 23.57 20.32Q23.56 18.68 23.54 17.40Q23.51 16.11 23.50 15.32Q23.49 14.53 23.49 14.45Q23.49 14.26 23.55 14.11Q23.61 13.96 23.80 13.84Q23.95 13.77 24.16 13.64Q24.37 13.50 24.58 13.50Q24.85 13.50 25 13.65Q25.15 13.77 25.23 14.10Q25.32 14.43 25.37 15.22Q25.42 16.02 25.43 17.42Q25.44 18.82 25.44 21.04Q25.44 23.10 25.34 25.29Q25.24 27.49 25.11 29.61Q24.98 31.74 24.82 33.69Q24.66 35.64 24.52 37.21Q24.39 38.77 24.29 39.81Q24.19 40.84 24.19 41.14Q24.19 41.26 24.19 41.43Q24.19 41.60 24.22 41.76Q24.24 41.92 24.29 42.03Q24.34 42.14 24.44 42.14Q24.68 42.14 24.95 41.36Q25.22 40.58 25.63 39.26Q25.90 38.43 26.25 37.57Q26.59 36.72 26.97 36.02Q27.34 35.33 27.75 34.89Q28.15 34.45 28.54 34.45Q28.83 34.45 29.04 34.62Q29.25 34.79 29.39 35.05Q29.54 35.30 29.61 35.60Q29.69 35.89 29.74 36.16Q29.76 36.45 29.81 37.04Q29.86 37.62 29.91 38.38Q29.96 39.14 30.02 39.97Q30.08 40.80 30.15 41.55Q30.27 42.92 30.81 43.53Q31.35 44.14 32.20 44.14Q32.54 44.14 32.74 44.09Q32.93 44.04 33.11 44.04Q33.23 44.04 33.15 44.29Q33.11 44.38 32.74 44.62Q32.37 44.85 31.45 44.85Q30.66 44.85 30.14 44.59Q29.61 44.34 29.31 43.79Q29.00 43.24 28.85 42.35Q28.69 41.46 28.64 40.21Q28.59 39.50 28.55 38.73Q28.52 37.96 28.43 37.33Q28.34 36.69 28.20 36.29Q28.05 35.89 27.78 35.89Q27.56 35.89 27.29 36.39Q27.03 36.89 26.77 37.56Q26.51 38.23 26.29 38.90Q26.07 39.58 25.95 39.94Q25.85 40.23 25.66 40.92Q25.46 41.60 25.20 42.31Q24.93 43.02 24.61 43.55Q24.29 44.09 23.95 44.09Q23.66 44.09 23.49 43.76Q23.32 43.43 23.23 42.96Q23.14 42.48 23.12 41.98Q23.10 41.48 23.10 41.14ZM34.35 34.69Q34.55 34.69 34.73 34.80Q34.91 34.91 35.05 35.03Q35.18 35.16 35.27 35.29Q35.35 35.42 35.35 35.45Q35.35 35.47 35.29 35.71Q35.23 35.94 35.14 36.47Q35.06 37.01 35.00 37.88Q34.94 38.75 34.94 40.04Q34.94 41.77 35.36 42.46Q35.79 43.14 36.40 43.14Q37.01 43.14 37.61 42.77Q38.21 42.41 38.75 41.82Q39.28 41.24 39.76 40.49Q40.23 39.75 40.60 38.99L40.75 39.09Q40.65 39.33 40.45 39.83Q40.26 40.33 39.97 40.92Q39.67 41.50 39.27 42.13Q38.87 42.75 38.34 43.25Q37.82 43.75 37.19 44.08Q36.57 44.41 35.84 44.41Q35.33 44.41 34.90 44.21Q34.47 44.02 34.14 43.49Q33.81 42.97 33.63 42.04Q33.45 41.11 33.45 39.65Q33.45 38.89 33.51 38.02Q33.57 37.16 33.68 36.41Q33.79 35.67 33.96 35.18Q34.13 34.69 34.35 34.69M34.94 28.64Q35.55 28.64 35.82 29.06Q36.08 29.49 36.08 30.10Q36.08 30.81 35.69 31.20Q35.30 31.59 34.74 31.59Q34.33 31.59 33.94 31.27Q33.54 30.96 33.54 30.25Q33.54 29.47 33.94 29.05Q34.33 28.64 34.94 28.64ZM42.38 43.65Q42.75 43.65 43.26 43.24Q43.77 42.82 44.32 42.11Q44.87 41.41 45.39 40.49Q45.90 39.58 46.24 38.55Q45.48 38.13 45.08 37.35Q44.68 36.57 44.68 35.74Q44.68 35.23 44.81 34.77Q44.95 34.30 45.19 33.95Q45.43 33.59 45.74 33.40Q46.04 33.20 46.39 33.20Q46.85 33.20 47.19 33.65Q47.53 34.11 47.53 35.21Q47.53 35.72 47.40 36.41Q47.27 37.11 47.00 37.89L47.49 37.89Q48.07 37.89 48.56 37.68Q49.05 37.48 49.45 37.15Q49.85 36.82 50.16 36.38Q50.46 35.94 50.68 35.50L50.98 35.64Q50.83 35.99 50.52 36.52Q50.22 37.06 49.76 37.56Q49.29 38.06 48.67 38.43Q48.05 38.79 47.29 38.79Q47.14 38.79 47.00 38.79Q46.85 38.79 46.68 38.75Q46.29 39.82 45.73 40.88Q45.17 41.94 44.49 42.80Q43.82 43.65 43.05 44.18Q42.29 44.70 41.48 44.70Q41.16 44.70 40.92 44.64Q40.67 44.58 40.48 44.30Q40.28 44.02 40.15 43.46Q40.01 42.90 39.92 41.89Q39.82 40.89 39.78 39.39Q39.75 37.89 39.75 35.74Q39.75 34.69 39.18 34.69Q39.06 34.69 38.98 34.72Q38.89 34.74 38.84 34.74Q38.65 34.74 38.65 34.55Q38.65 34.47 38.95 34.29Q39.26 34.11 39.94 34.11Q40.72 34.11 40.98 34.46Q41.24 34.81 41.24 35.60Q41.24 37.65 41.27 39.04Q41.31 40.43 41.38 41.33Q41.46 42.24 41.55 42.70Q41.65 43.16 41.78 43.38Q41.92 43.60 42.07 43.63Q42.21 43.65 42.38 43.65M45.29 35.55Q45.29 36.23 45.54 36.82Q45.80 37.40 46.44 37.70Q46.56 37.26 46.62 36.83Q46.68 36.40 46.68 35.94Q46.68 35.69 46.66 35.41Q46.63 35.13 46.56 34.91Q46.48 34.69 46.34 34.55Q46.19 34.40 45.95 34.40Q45.68 34.40 45.48 34.73Q45.29 35.06 45.29 35.55ZM58.54 36.40Q58.33 36.40 58.14 36.15Q57.96 35.89 57.67 35.60Q57.37 35.30 56.92 35.05Q56.47 34.79 55.74 34.79Q54.71 34.79 53.83 35.31Q52.95 35.84 52.32 36.63Q51.68 37.43 51.33 38.37Q50.98 39.31 50.98 40.14Q50.98 41.43 51.64 42.26Q52.29 43.09 53.39 43.09Q54.25 43.09 54.90 42.76Q55.54 42.43 55.98 41.89Q55.83 41.24 55.83 40.26Q55.83 39.21 55.99 38.55Q56.15 37.89 56.38 37.52Q56.62 37.16 56.86 37.02Q57.10 36.89 57.28 36.89Q57.47 36.89 57.73 37.16Q57.98 37.43 57.98 38.11Q57.98 38.96 57.68 39.90Q57.37 40.84 56.84 41.70Q57.13 42.46 57.74 42.80Q58.35 43.14 59.13 43.14Q59.81 43.14 60.41 42.83Q61.01 42.53 61.54 42.02Q62.06 41.50 62.52 40.83Q62.99 40.16 63.38 39.45L63.53 39.55Q63.23 40.48 62.74 41.36Q62.26 42.24 61.62 42.92Q60.99 43.60 60.24 44.01Q59.50 44.41 58.69 44.41Q58.08 44.41 57.36 44.01Q56.64 43.60 56.18 42.55Q55.42 43.46 54.44 44.06Q53.47 44.65 52.34 44.65Q51.71 44.65 51.20 44.36Q50.68 44.07 50.33 43.58Q49.98 43.09 49.78 42.43Q49.58 41.77 49.58 41.04Q49.58 39.79 50.13 38.55Q50.68 37.30 51.60 36.30Q52.51 35.30 53.70 34.68Q54.88 34.06 56.18 34.06Q57.13 34.06 57.78 34.27Q58.42 34.47 58.81 34.75Q59.20 35.03 59.38 35.33Q59.55 35.62 59.55 35.79Q59.55 36.13 59.19 36.27Q58.84 36.40 58.54 36.40M56.49 39.65Q56.49 40.45 56.64 41.04Q57.01 40.36 57.18 39.64Q57.35 38.92 57.35 38.40Q57.35 37.79 57.13 37.79Q56.91 37.79 56.70 38.33Q56.49 38.87 56.49 39.65ZM64.14 33.96Q64.26 33.96 64.33 34.16Q64.40 34.35 64.44 34.62Q64.48 34.89 64.48 35.19Q64.48 35.50 64.48 35.74Q64.48 36.38 64.44 37.05Q64.40 37.72 64.37 38.34Q64.33 38.96 64.31 39.49Q64.28 40.01 64.28 40.36Q64.28 40.99 64.33 41.37Q64.38 41.75 64.58 41.75Q64.70 41.75 64.89 41.43Q65.09 41.11 65.32 40.66Q65.55 40.21 65.77 39.70Q65.99 39.18 66.19 38.79Q66.43 38.28 66.74 37.66Q67.04 37.04 67.38 36.49Q67.72 35.94 68.10 35.57Q68.48 35.21 68.90 35.21Q69.17 35.21 69.37 35.35Q69.58 35.50 69.73 35.73Q69.87 35.96 69.96 36.22Q70.04 36.47 70.09 36.69Q70.17 37.26 70.25 38.46Q70.34 39.67 70.48 41.04Q70.61 42.41 71.14 43.03Q71.68 43.65 72.53 43.65Q72.88 43.65 73.08 43.60Q73.29 43.55 73.44 43.55Q73.56 43.55 73.49 43.80Q73.46 43.85 73.38 43.93Q73.29 44.02 73.10 44.12Q72.90 44.21 72.57 44.29Q72.24 44.36 71.78 44.36Q71.00 44.36 70.48 44.10Q69.97 43.85 69.65 43.29Q69.34 42.72 69.19 41.83Q69.04 40.94 68.99 39.70Q68.95 39.11 68.91 38.56Q68.87 38.01 68.79 37.59Q68.70 37.16 68.55 36.90Q68.41 36.65 68.14 36.65Q67.92 36.65 67.61 37.08Q67.31 37.52 67.02 38.12Q66.72 38.72 66.47 39.36Q66.21 39.99 66.04 40.36Q65.50 41.50 65.15 42.24Q64.79 42.97 64.38 43.65Q64.26 43.85 64.12 43.97Q63.99 44.09 63.79 44.09Q63.50 44.09 63.33 43.60Q63.16 43.12 63.07 42.48Q62.99 41.85 62.96 41.20Q62.94 40.55 62.94 40.21Q62.94 39.82 62.95 39.26Q62.96 38.70 62.99 38.16Q63.01 37.62 63.02 37.18Q63.04 36.74 63.04 36.60Q63.04 36.45 63.02 36.19Q63.01 35.94 63.01 35.68Q63.01 35.42 63.00 35.22Q62.99 35.01 62.99 34.94Q62.99 34.74 63.10 34.61Q63.21 34.47 63.33 34.40Q63.45 34.33 63.72 34.14Q63.99 33.96 64.14 33.96ZM81.74 34.11Q82.42 34.11 82.89 34.20Q83.35 34.30 83.62 34.46Q83.89 34.62 84.00 34.80Q84.11 34.99 84.11 35.16Q84.11 35.42 83.85 35.77Q83.59 36.11 83.40 36.11Q83.30 36.11 83.14 36.02Q82.98 35.94 82.68 35.85Q82.37 35.77 81.92 35.68Q81.47 35.60 80.79 35.60Q77.98 35.60 76.44 36.83Q74.90 38.06 74.90 40.21Q74.90 40.58 75.06 41.02Q75.22 41.46 75.55 41.82Q75.88 42.19 76.40 42.44Q76.93 42.70 77.69 42.70Q79.13 42.70 80.14 42.16Q81.15 41.63 81.84 40.94Q81.84 40.82 81.86 40.72Q81.88 40.63 81.93 40.50Q82.10 39.67 82.39 38.95Q82.67 38.23 82.98 37.71Q83.30 37.18 83.62 36.89Q83.94 36.60 84.16 36.60Q84.42 36.60 84.46 36.77Q84.50 36.94 84.50 37.06Q84.50 37.50 84.00 38.51Q83.50 39.53 82.64 40.65Q82.45 41.82 82.25 43.60Q82.06 45.39 81.88 47.68Q81.71 49.98 81.60 52.72Q81.49 55.47 81.49 58.54Q81.49 61.11 81.59 63.49Q81.69 65.87 81.80 67.70Q81.91 69.53 82.01 70.67Q82.10 71.80 82.10 71.90Q82.10 72.24 82.04 72.42Q81.98 72.61 81.79 72.80Q81.64 72.95 81.43 73.12Q81.23 73.29 81.01 73.29Q80.71 73.29 80.59 73.10Q80.44 72.92 80.27 72.39Q80.10 71.85 79.97 70.59Q79.83 69.34 79.74 67.16Q79.64 64.99 79.64 61.50Q79.64 58.42 79.83 55.55Q80.03 52.69 80.33 50.16Q80.64 47.63 81.01 45.50Q81.37 43.36 81.69 41.75Q80.66 42.77 79.43 43.48Q78.20 44.19 76.81 44.19Q76.17 44.19 75.57 44.01Q74.98 43.82 74.52 43.43Q74.07 43.04 73.80 42.46Q73.54 41.87 73.54 41.09Q73.54 40.04 74.13 38.81Q74.73 37.57 75.82 36.54Q76.90 35.50 78.42 34.80Q79.93 34.11 81.74 34.11M83.11 38.79Q83.01 38.92 82.93 39.16Q82.86 39.40 82.79 39.75Q82.89 39.62 82.96 39.54Q83.03 39.45 83.08 39.38Q83.13 39.28 83.15 39.21Q83.25 38.87 83.30 38.67Q83.35 38.50 83.33 38.49Q83.30 38.48 83.11 38.79Z"/></g></g></svg>
